<svg width="26" height="24" viewBox="0 0 26 24" fill="none" xmlns="http://www.w3.org/2000/svg">
<g clip-path="url(#clip0_21_50)">
<path d="M8.52043 19V8.87953H4.95925V19H8.52043ZM6.7403 7.49692C7.98215 7.49692 8.75514 6.71978 8.75514 5.74862C8.732 4.75556 7.98219 4 6.76387 4C5.54573 4 4.74915 4.75558 4.74915 5.74862C4.74915 6.71983 5.52194 7.49692 6.71705 7.49692H6.74019H6.7403ZM10.4915 19H14.0527V13.3482C14.0527 13.0458 14.0758 12.7436 14.1699 12.5274C14.4273 11.923 15.0133 11.2971 15.997 11.2971C17.2857 11.2971 17.8012 12.2252 17.8012 13.5857V18.9999H21.3622V13.1969C21.3622 10.0883 19.6053 8.64193 17.2622 8.64193C15.3411 8.64193 14.4976 9.65626 14.029 10.3471H14.0528V8.87932H10.4916C10.5383 9.82897 10.4916 18.9998 10.4916 18.9998L10.4915 19Z" fill="#0E0F1D"/>
</g>
<defs>
<clipPath id="clip0_21_50">
<rect width="16.6104" height="15" fill="white" transform="translate(4.74915 4)"/>
</clipPath>
</defs>
</svg>
