<svg width="25" height="24" viewBox="0 0 25 24" fill="none" xmlns="http://www.w3.org/2000/svg">
<g clip-path="url(#clip0_21_54)">
<path d="M21.8713 6.7049C21.1716 6.98937 20.4293 7.1761 19.6693 7.25887C20.461 6.82346 21.0688 6.13398 21.355 5.31247C20.6025 5.72228 19.7791 6.01101 18.9206 6.1662C18.2212 5.48248 17.2249 5.05518 16.1221 5.05518C14.0049 5.05518 12.2882 6.63041 12.2882 8.57326C12.2882 8.84904 12.3222 9.11752 12.3875 9.37508C9.20126 9.22831 6.37635 7.82771 4.48542 5.69918C4.15548 6.21878 3.96642 6.82319 3.96642 7.46786C3.96642 8.68848 4.6433 9.76527 5.67195 10.3962C5.06313 10.3787 4.46771 10.2278 3.9354 9.95611C3.93518 9.97085 3.93518 9.98559 3.93518 10.0004C3.93518 11.705 5.25668 13.1269 7.01046 13.4501C6.44591 13.591 5.85373 13.6117 5.27916 13.5104C5.76699 14.9082 7.18288 15.9253 8.86045 15.9537C7.54836 16.8973 5.89524 17.4598 4.09913 17.4598C3.78963 17.4598 3.48451 17.4431 3.18457 17.4106C4.8812 18.4088 6.89637 18.9913 9.06141 18.9913C16.1132 18.9913 19.9694 13.6303 19.9694 8.98127C19.9694 8.82868 19.9657 8.67695 19.9583 8.5261C20.7088 8.02819 21.3566 7.41147 21.8713 6.7049Z" fill="#0E0F1D"/>
</g>
<defs>
<clipPath id="clip0_21_54">
<rect width="18.6867" height="14" fill="white" transform="translate(3.18457 5)"/>
</clipPath>
</defs>
</svg>
