<svg width="25" height="24" viewBox="0 0 25 24" fill="none" xmlns="http://www.w3.org/2000/svg">
<g clip-path="url(#clip0_21_46)">
<path d="M12.5461 7.95708C10.188 7.95708 8.28595 9.76059 8.28595 11.9965C8.28595 14.2325 10.188 16.036 12.5461 16.036C14.9042 16.036 16.8062 14.2325 16.8062 11.9965C16.8062 9.76059 14.9042 7.95708 12.5461 7.95708ZM12.5461 14.6227C11.0222 14.6227 9.77644 13.445 9.77644 11.9965C9.77644 10.5481 11.0185 9.37036 12.5461 9.37036C14.0736 9.37036 15.3157 10.5481 15.3157 11.9965C15.3157 13.445 14.0699 14.6227 12.5461 14.6227ZM17.9741 7.79184C17.9741 8.31567 17.5292 8.73403 16.9805 8.73403C16.428 8.73403 15.9868 8.31216 15.9868 7.79184C15.9868 7.27153 16.4317 6.84966 16.9805 6.84966C17.5292 6.84966 17.9741 7.27153 17.9741 7.79184ZM20.7957 8.74809C20.7326 7.48598 20.4286 6.36802 19.4535 5.44692C18.4821 4.52583 17.303 4.23755 15.972 4.17427C14.6001 4.10044 10.4883 4.10044 9.11647 4.17427C7.78912 4.23403 6.61007 4.52231 5.63495 5.44341C4.65983 6.3645 4.35951 7.48247 4.29277 8.74458C4.21491 10.0454 4.21491 13.9442 4.29277 15.245C4.3558 16.5071 4.65983 17.625 5.63495 18.5461C6.61007 19.4672 7.78541 19.7555 9.11647 19.8188C10.4883 19.8926 14.6001 19.8926 15.972 19.8188C17.303 19.759 18.4821 19.4707 19.4535 18.5461C20.4249 17.625 20.7289 16.5071 20.7957 15.245C20.8735 13.9442 20.8735 10.0489 20.7957 8.74809ZM19.0234 16.6407C18.7342 17.3297 18.1743 17.8606 17.4439 18.1383C16.3502 18.5497 13.7548 18.4547 12.5461 18.4547C11.3374 18.4547 8.73828 18.5461 7.64823 18.1383C6.92152 17.8641 6.36166 17.3332 6.06875 16.6407C5.63495 15.6036 5.73506 13.1426 5.73506 11.9965C5.73506 10.8504 5.63866 8.38598 6.06875 7.35239C6.35795 6.66333 6.91781 6.13247 7.64823 5.85474C8.74199 5.44341 11.3374 5.53833 12.5461 5.53833C13.7548 5.53833 16.3539 5.44692 17.4439 5.85474C18.1706 6.12895 18.7305 6.65981 19.0234 7.35239C19.4572 8.3895 19.3571 10.8504 19.3571 11.9965C19.3571 13.1426 19.4572 15.6071 19.0234 16.6407Z" fill="#0E0F1D"/>
</g>
<defs>
<clipPath id="clip0_21_46">
<rect width="16.6104" height="18" fill="white" transform="translate(4.23706 3)"/>
</clipPath>
</defs>
</svg>
